<svg version="1.1" id="Layer_1" xmlns="http://www.w3.org/2000/svg" xmlns:xlink="http://www.w3.org/1999/xlink" x="0px" y="0px"
	 width="100%" viewBox="0 0 500 500" enable-background="new 0 0 500 500" xml:space="preserve">
<path fill="#060606" opacity="1.000000" stroke="none" 
	d="
M276.000000,501.000000 
	C185.333359,501.000000 95.166679,500.975098 5.000193,501.095795 
	C1.576114,501.100372 0.903036,500.423828 0.905301,497.000000 
	C1.013778,333.000092 1.013756,169.000122 0.905337,5.000246 
	C0.903074,1.576944 1.575796,0.903021 4.999877,0.905286 
	C168.999756,1.013775 332.999725,1.013761 496.999634,0.905353 
	C500.422668,0.903091 501.096985,1.575430 501.094727,4.999757 
	C500.986206,168.999634 500.986237,332.999603 501.094604,496.999512 
	C501.096893,500.422272 500.425629,501.102264 497.000275,501.096344 
	C423.500336,500.969482 350.000153,501.000000 276.000000,501.000000 
z"/>
<path fill="#E2E2E0" opacity="1.000000" stroke="none" 
	d="
M414.311707,237.459381 
	C412.985291,240.495163 411.816010,243.187805 410.310120,246.655548 
	C405.927826,236.828308 401.847839,227.678955 397.767853,218.529602 
	C397.133881,227.643951 396.309814,236.611893 397.503662,245.943115 
	C396.590424,246.479599 394.950897,245.788208 393.511475,246.046402 
	C393.511475,234.337448 393.511475,222.834122 393.511475,211.145508 
	C396.890564,209.941254 399.021393,211.115662 400.561523,215.021667 
	C403.628235,222.799164 407.237183,230.362854 411.071106,239.029846 
	C415.006989,229.947067 418.465485,221.950104 421.940857,213.960464 
	C422.576019,212.500198 422.825867,210.688629 425.153687,210.850525 
	C426.977142,210.977341 428.128265,210.472321 427.865082,213.616989 
	C426.982361,224.164474 427.030334,234.773895 427.920258,245.981995 
	C427.312653,246.591690 425.735718,245.885727 424.312958,246.016602 
	C422.665710,246.168091 422.807831,245.473770 423.022156,244.007874 
	C424.229095,235.752151 423.325775,227.453430 422.480225,218.839249 
	C419.809753,224.931580 417.139282,231.023911 414.311707,237.459381 
z"/>
<path fill="#E6E6E4" opacity="1.000000" stroke="none" 
	d="
M107.686981,244.183624 
	C103.924026,235.744156 100.321976,227.626846 96.719925,219.509521 
	C96.246536,219.577606 95.773148,219.645691 95.299759,219.713776 
	C95.510353,228.335526 94.359161,236.964783 96.220802,245.750809 
	C94.861427,246.278336 93.271255,246.129150 92.047646,245.850677 
	C93.293358,234.310913 92.890038,222.937851 92.346855,211.093811 
	C95.601860,209.706238 97.612259,211.362717 99.180237,215.320526 
	C102.229187,223.016525 105.772270,230.516724 109.550797,239.097534 
	C113.296234,230.429352 116.824165,222.680801 119.973312,214.781265 
	C121.322777,211.396164 123.110115,209.969604 126.449852,211.177399 
	C126.449852,222.704178 126.449852,234.150543 126.449852,245.836716 
	C125.016388,246.396698 123.079262,245.934250 121.369865,245.896362 
	C122.725922,236.625626 121.702934,227.570618 121.180664,218.258759 
	C117.742355,226.199982 114.318100,234.147354 110.850616,242.075806 
	C110.328636,243.269302 109.815018,244.594879 108.912613,245.455948 
	C108.080971,246.249466 108.205734,244.863571 107.686981,244.183624 
z"/>
<path fill="#DEDEDC" opacity="1.000000" stroke="none" 
	d="
M252.578918,244.979980 
	C255.675934,230.523041 255.172455,229.882324 241.230209,229.883575 
	C234.622162,229.884171 234.592194,229.884384 234.636627,236.386444 
	C234.657837,239.487991 234.223389,242.653534 235.807251,245.867874 
	C232.887802,245.705063 229.666016,248.256424 230.381180,241.682709 
	C231.467072,231.701279 231.164612,221.472061 230.295761,211.078217 
	C231.663788,210.510315 233.582016,210.833893 235.570236,211.146271 
	C233.964249,215.735641 234.870834,220.423767 234.624603,225.040466 
	C234.526352,226.882599 235.506058,227.311325 237.082932,227.233658 
	C238.245270,227.176422 239.484421,227.483963 240.565567,227.183533 
	C244.810547,226.003983 250.933685,230.275497 253.156540,224.861908 
	C254.749374,220.982712 254.198502,215.708633 252.412949,211.024353 
	C254.413849,211.024353 256.214508,211.024353 257.892883,211.024353 
	C257.134186,222.593216 256.895447,234.053925 258.043304,245.820389 
	C256.379089,246.039795 254.336319,246.623947 252.578918,244.979980 
z"/>
<path fill="#DEDEDC" opacity="1.000000" stroke="none" 
	d="
M170.906265,226.154175 
	C171.289658,232.976929 170.006012,239.410019 171.885498,245.862152 
	C170.445435,245.862152 168.989868,245.862152 167.904938,245.862152 
	C167.892792,234.262085 168.894180,222.659561 167.254822,210.802734 
	C169.163330,210.088287 171.117920,211.336563 173.018875,213.612427 
	C179.625854,221.522415 186.390686,229.300552 193.570312,237.683258 
	C193.570312,228.490112 193.570312,219.963684 193.570312,211.005447 
	C194.496887,210.421066 196.098511,211.043152 197.295639,210.976471 
	C197.295639,222.920547 197.295639,234.588638 197.295639,246.256744 
	C196.911652,246.416870 196.527664,246.576981 196.143677,246.737091 
	C188.019562,237.293411 179.895447,227.849731 170.906265,217.400482 
	C170.906265,220.906052 170.906265,223.291824 170.906265,226.154175 
z"/>
<path fill="#E1E1DF" opacity="1.000000" stroke="none" 
	d="
M43.102482,235.910782 
	C42.871708,227.377792 43.619221,219.302658 42.572197,211.017685 
	C45.290070,210.972153 48.254761,209.132446 47.278629,215.271393 
	C45.390003,227.149002 45.960514,227.239716 58.034225,227.239670 
	C66.013565,227.239639 66.014229,227.239639 66.009003,219.174850 
	C66.008141,217.845032 66.336594,216.402069 65.935799,215.204544 
	C63.974239,209.343765 67.770546,210.891602 70.420547,211.056870 
	C70.420547,222.776230 70.420547,234.224579 70.420547,245.856323 
	C69.025162,245.856323 67.233864,245.856323 65.262024,245.856323 
	C64.537300,244.681488 65.798859,243.857086 65.950699,242.858276 
	C67.788872,230.766495 67.059692,229.874512 54.985401,229.874527 
	C47.016899,229.874527 47.027836,229.874557 47.019787,237.934174 
	C47.017174,240.550842 46.841946,243.180161 48.167965,245.645950 
	C46.077232,246.371964 44.143124,245.970627 41.996593,245.869675 
	C43.610760,242.653961 42.954300,239.487488 43.102482,235.910782 
z"/>
<path fill="#E3E3E2" opacity="1.000000" stroke="none" 
	d="
M378.240204,232.903137 
	C381.748840,237.410782 384.877502,241.683090 388.880005,245.392578 
	C385.397522,246.930115 383.294830,245.685699 381.325104,242.976562 
	C377.834229,238.175262 374.038300,233.595734 370.173126,228.672638 
	C372.745728,228.176941 374.781433,228.128586 376.513336,227.378632 
	C380.006195,225.866165 381.444427,221.273270 379.915314,217.513565 
	C378.532684,214.113953 373.867035,212.008957 370.263855,212.997772 
	C369.252350,213.275360 368.898102,213.730423 368.897705,214.643219 
	C368.893433,224.922867 368.894989,235.202515 368.894989,246.007019 
	C368.017151,246.406113 366.097595,246.047623 364.396301,245.857620 
	C365.479950,234.251541 364.949310,222.775558 364.739075,210.972733 
	C367.723907,210.972733 371.373230,210.795822 374.998016,211.018631 
	C379.285065,211.282166 382.871277,213.050934 383.998749,217.559372 
	C385.189484,222.320801 383.467804,226.202713 379.080902,228.438477 
	C376.803345,229.599213 375.839294,230.512772 378.240204,232.903137 
z"/>
<path fill="#E1E1DF" opacity="1.000000" stroke="none" 
	d="
M134.930389,237.770523 
	C138.893539,228.307678 142.736801,219.209503 146.977417,209.170654 
	C152.380600,221.997406 157.367065,233.834900 162.448212,245.897202 
	C159.418427,246.122803 155.965912,247.153702 156.074341,241.786713 
	C156.089798,241.021194 155.522171,240.241516 155.214813,239.472214 
	C152.588470,232.898209 147.591385,230.112839 141.148758,232.713806 
	C137.398102,234.227997 136.384003,238.989136 136.320633,242.394958 
	C136.233292,247.089447 134.113693,246.285629 131.240021,245.750717 
	C132.445618,243.179245 133.628052,240.657227 134.930389,237.770523 
z"/>
<path fill="#E2E2E0" opacity="1.000000" stroke="none" 
	d="
M456.130005,237.991943 
	C454.938385,230.984360 449.815918,232.920578 445.601044,232.392517 
	C441.226471,231.844467 440.275543,234.608093 439.218109,237.643112 
	C438.672668,239.208694 437.516327,240.850006 437.697784,242.326630 
	C438.261536,246.913986 435.572784,246.260040 432.902832,245.828537 
	C438.007751,233.850311 443.117432,221.860977 448.503113,209.223938 
	C453.831055,221.884735 458.883545,233.890945 463.887604,245.782104 
	C456.478241,248.670593 458.414764,241.362030 456.130005,237.991943 
z"/>
<path fill="#DADAD8" opacity="1.000000" stroke="none" 
	d="
M338.653473,210.951874 
	C343.363678,211.053299 348.600433,211.077866 353.821869,210.807297 
	C356.844818,210.650665 357.780731,211.690475 356.747986,214.678391 
	C355.459656,214.168076 354.222198,213.455109 352.895172,213.189346 
	C345.653778,211.739212 344.638458,212.594025 344.638489,219.855377 
	C344.638489,221.354721 344.739197,222.862137 344.617737,224.351501 
	C344.444794,226.472458 345.193909,227.415848 347.424683,227.242386 
	C349.743774,227.062042 352.095306,227.246628 354.403717,227.000412 
	C355.782379,226.853378 356.692047,226.730042 356.622162,228.519836 
	C356.570465,229.843048 356.033234,230.119110 354.738770,229.982300 
	C351.486694,229.638580 346.836182,228.202332 345.348785,230.534836 
	C343.667694,233.170975 344.843018,237.579788 344.612366,241.207321 
	C344.465607,243.515717 345.517120,244.000214 347.572418,243.935440 
	C351.207642,243.820877 354.911285,244.278305 358.202301,241.653091 
	C358.518341,244.630600 358.151062,246.315460 354.733887,246.126007 
	C349.782684,245.851517 344.804932,246.055664 340.326172,246.055664 
	C340.305054,233.989792 342.338043,222.320389 338.653473,210.951874 
z"/>
<path fill="#E2E2E0" opacity="1.000000" stroke="none" 
	d="
M337.708374,211.206985 
	C338.133362,211.152573 338.123535,210.997665 338.125427,210.957001 
	C335.632019,212.327835 334.782959,214.857361 333.770752,217.288757 
	C329.719635,227.019958 325.653046,236.744736 321.323853,247.114609 
	C315.401947,235.021149 311.603363,222.641739 305.481964,211.195587 
	C308.870178,210.382904 311.042725,210.217987 312.391724,215.381256 
	C314.425476,223.165390 318.279175,230.474030 321.927979,239.371414 
	C325.555237,229.337540 330.241089,220.911789 332.459656,210.921722 
	C333.371643,210.770477 335.332855,210.662720 337.708374,211.206985 
z"/>
<path fill="#E6E6E4" opacity="1.000000" stroke="none" 
	d="
M292.046082,226.983276 
	C292.035645,229.968201 292.120148,232.466293 291.996796,234.954071 
	C291.640656,242.137451 286.902985,246.689072 279.828827,246.748367 
	C272.315887,246.811325 267.355255,242.413910 267.064117,235.057480 
	C266.834198,229.248108 267.000336,223.423325 266.975403,217.605438 
	C266.966309,215.487396 267.210052,213.325760 265.784790,211.425507 
	C270.307526,209.861847 271.643738,210.636368 271.074738,215.711533 
	C270.320587,222.437805 270.738586,229.328674 271.052612,236.130341 
	C271.276367,240.976883 274.391022,243.740768 279.026245,244.054947 
	C284.183594,244.404510 288.124695,242.167679 288.607910,237.439819 
	C289.494934,228.761215 289.301331,220.013779 288.638062,211.101425 
	C289.778046,210.704819 291.365936,210.673157 293.056091,211.287537 
	C291.201813,216.292587 292.376923,221.437225 292.046082,226.983276 
z"/>
<path fill="#DDDDDB" opacity="1.000000" stroke="none" 
	d="
M223.274872,241.161652 
	C218.667831,247.104965 211.744522,248.390488 205.794815,244.954529 
	C203.197708,243.454651 204.156403,241.328857 204.106812,238.600632 
	C206.805954,241.682968 209.317139,244.225327 213.223679,244.329544 
	C216.325623,244.412292 218.787247,243.431442 220.059769,240.402695 
	C221.400574,237.211472 220.660812,234.382599 217.904282,232.461334 
	C215.333099,230.669266 212.397034,229.410400 209.691696,227.799103 
	C203.925476,224.364761 202.352280,219.161591 205.563461,214.426666 
	C208.700882,209.800491 216.863449,208.610779 221.326187,212.030365 
	C223.056946,213.356583 222.298965,214.959900 222.492874,217.289169 
	C219.851517,215.220749 218.022858,213.014145 215.094818,212.679977 
	C211.761185,212.299484 209.188431,213.142410 207.816681,216.453644 
	C206.485870,219.666077 207.840439,222.031265 210.416672,223.707458 
	C212.771835,225.239792 215.393372,226.356888 217.858200,227.727707 
	C224.033905,231.162369 225.113922,233.737457 223.274872,241.161652 
z"/>
<path fill="#DADAD8" opacity="1.000000" stroke="none" 
	d="
M78.812622,244.310150 
	C79.567413,232.993423 79.597191,222.112656 78.889099,211.051270 
	C80.273903,211.051270 82.049065,211.051270 83.821411,211.049026 
	C82.998039,221.983337 82.820641,232.923553 83.806160,243.857529 
	C84.014046,246.163940 81.952568,246.842865 78.295670,245.565628 
	C78.294174,245.565094 78.371346,245.306488 78.429588,245.176422 
	C78.497101,245.025665 78.584312,244.883713 78.812622,244.310150 
z"/>
<path fill="#DFDFDD" opacity="1.000000" stroke="none" 
	d="
M190.984512,280.766266 
	C193.825958,279.932007 196.518448,279.612946 199.586197,280.678101 
	C198.341171,282.714661 196.691208,281.780304 195.427521,282.015991 
	C194.385452,282.210327 192.954834,281.623657 192.965134,283.527832 
	C192.975357,285.414154 194.378311,284.934052 195.445969,285.019379 
	C196.534744,285.106415 197.734772,284.774261 198.742981,285.901337 
	C197.929932,287.536224 196.474319,286.886566 195.329758,287.014740 
	C194.222641,287.138763 192.867905,286.754547 192.966537,288.635559 
	C193.065369,290.520264 194.501740,289.862579 195.525665,290.060211 
	C196.836090,290.313049 198.534653,289.297821 199.867950,292.031586 
	C197.070572,292.031586 194.728470,292.005402 192.387253,292.040009 
	C190.568390,292.066895 190.771912,290.768951 190.772156,289.638977 
	C190.772797,286.816467 190.816315,283.993988 190.984512,280.766266 
z"/>
<path fill="#DFDFDD" opacity="1.000000" stroke="none" 
	d="
M235.430878,285.093323 
	C237.325348,287.954529 234.814606,286.722260 233.912781,287.006592 
	C232.825943,287.349304 230.975861,286.287079 230.988922,288.546295 
	C231.001877,290.791595 232.821747,289.803009 233.940170,290.047455 
	C235.108643,290.302826 236.634399,289.405945 237.625351,291.580688 
	C234.652954,292.293579 230.363754,293.153900 229.385818,291.478210 
	C227.673691,288.544434 227.722382,283.910492 229.288651,280.932465 
	C230.452515,278.719543 234.422012,279.893585 237.213852,280.563812 
	C236.941101,282.511597 235.661591,281.763916 234.859818,282.050293 
	C233.547958,282.518890 230.963516,280.725006 231.076447,283.597748 
	C231.180817,286.252197 233.678665,284.527649 235.430878,285.093323 
z"/>
<path fill="#DADAD8" opacity="1.000000" stroke="none" 
	d="
M323.845703,291.933136 
	C322.477478,289.639740 322.965912,287.287384 323.031342,285.008514 
	C323.078308,283.372986 321.868164,280.813385 324.075043,280.241821 
	C326.517151,279.609344 329.483154,279.311188 331.601898,281.474152 
	C333.203003,283.108704 333.259766,285.281555 331.709137,286.876312 
	C329.850342,288.787964 332.421478,290.163147 332.024689,292.040131 
	C329.355469,291.669434 326.651306,284.656921 323.845703,291.933136 
z"/>
<path fill="#E1E1DF" opacity="1.000000" stroke="none" 
	d="
M179.811584,289.763428 
	C178.610260,291.037170 177.520142,291.703705 176.159714,291.959412 
	C170.776215,292.971375 169.821945,292.312714 170.050354,286.802551 
	C170.142822,284.571686 168.510178,281.317749 171.297592,280.274597 
	C173.741882,279.359863 176.911209,279.515167 179.189407,281.784027 
	C181.507141,284.092285 181.636078,286.677246 179.811584,289.763428 
z"/>
<path fill="#D3D3D2" opacity="1.000000" stroke="none" 
	d="
M266.115051,289.268616 
	C265.134399,290.455292 264.530945,290.155029 263.986938,289.330048 
	C262.031494,286.364746 262.956482,282.660461 266.092346,280.870850 
	C269.491577,278.930908 273.867523,280.215698 275.161774,283.831879 
	C276.421051,287.350403 275.788086,290.229828 271.522400,291.336212 
	C270.616180,291.571228 269.813354,292.252655 268.386780,291.977661 
	C267.664368,291.517548 267.478333,291.087952 267.575470,290.238281 
	C267.980286,289.501709 268.334412,289.165283 268.741913,288.888184 
	C269.814331,288.158966 271.116608,287.565094 270.762207,285.901398 
	C270.619476,285.231323 270.140289,284.608673 269.464600,284.617218 
	C267.447235,284.642761 267.407684,286.360443 267.004150,287.735443 
	C266.865479,288.208069 266.674805,288.656738 266.115051,289.268616 
z"/>
<path fill="#DADAD8" opacity="1.000000" stroke="none" 
	d="
M308.859314,280.019836 
	C310.484802,280.239532 311.954407,279.464264 313.003876,281.364044 
	C311.542603,282.397461 309.906433,281.916107 308.417450,282.050049 
	C307.442444,282.137756 306.371674,282.038116 306.404816,283.539032 
	C306.437012,284.995636 307.489044,284.867462 308.455048,285.018188 
	C309.641357,285.203369 311.094299,284.417480 311.970612,285.848816 
	C311.843262,286.183441 311.816803,286.534576 311.627594,286.705383 
	C310.160736,288.029449 306.477173,285.318787 306.649384,288.707642 
	C306.779968,291.277863 309.903168,289.523499 311.604797,290.053192 
	C312.268097,290.259644 312.856262,290.364990 312.902771,291.621002 
	C310.155884,292.283569 306.276489,293.227783 304.834106,291.415405 
	C302.800354,288.859955 303.936401,284.747162 304.286255,281.367218 
	C304.531921,278.993805 306.981537,280.408569 308.859314,280.019836 
z"/>
<path fill="#D0D0CE" opacity="1.000000" stroke="none" 
	d="
M211.631805,289.498077 
	C210.566055,286.840942 209.652313,284.537292 208.756256,282.226837 
	C208.483353,281.523163 207.746689,280.654633 208.881088,280.171021 
	C209.778519,279.788422 210.456009,280.437012 210.787766,281.272766 
	C211.687988,283.540680 212.543915,285.826111 213.513474,288.355194 
	C216.136337,285.985016 215.664337,282.037354 218.641235,280.119019 
	C218.639069,284.224365 217.029526,287.915100 215.037415,291.196167 
	C213.645996,293.487854 212.372284,291.619965 211.631805,289.498077 
z"/>
<path fill="#D3D3D2" opacity="1.000000" stroke="none" 
	d="
M288.030762,289.027344 
	C287.069580,290.102966 287.949646,291.969818 286.152008,291.899078 
	C284.729767,291.843201 285.125031,290.467346 285.096649,289.565216 
	C285.039093,287.738190 285.003540,285.904236 285.098877,284.080444 
	C285.192535,282.289459 284.217651,279.806946 287.671143,279.979248 
	C290.487671,280.119751 293.869110,279.554169 294.607971,283.215118 
	C295.589203,288.076935 291.800079,288.415710 288.030762,289.027344 
z"/>
<path fill="#131313" opacity="1.000000" stroke="none" 
	d="
M265.841858,289.502869 
	C265.816040,288.999817 265.960144,288.463043 265.779205,288.079742 
	C264.404633,285.167847 265.565613,283.164856 268.278076,282.263580 
	C270.625977,281.483490 272.636169,282.582916 273.120728,285.097809 
	C273.745605,288.341034 272.201263,290.105225 268.404938,290.078552 
	C267.478699,290.433746 266.915985,290.521790 266.129333,289.954102 
	C265.944916,289.550018 265.861267,289.540192 265.841858,289.502869 
z"/>
<path fill="#B9B9B8" opacity="1.000000" stroke="none" 
	d="
M250.040207,292.122375 
	C245.215454,291.366302 247.598404,287.950531 247.372650,285.807983 
	C247.178940,283.969604 246.005661,280.359436 248.565140,280.363800 
	C251.095093,280.368103 250.136383,284.103638 249.732422,285.804138 
	C248.585098,290.633728 252.911713,289.486298 255.363007,290.979706 
	C253.645493,292.559753 251.969299,291.964996 250.040207,292.122375 
z"/>
<path fill="#DADAD8" opacity="1.000000" stroke="none" 
	d="
M94.633377,286.392212 
	C95.386620,289.546783 94.162476,290.955780 91.370903,290.630829 
	C89.288544,290.388458 88.497543,288.788513 89.305466,286.974670 
	C90.444702,284.417084 92.334450,284.183014 94.633377,286.392212 
z"/>
<path fill="#D3D3D2" opacity="1.000000" stroke="none" 
	d="
M407.917847,285.827332 
	C410.124207,284.392029 411.736633,284.787964 412.753876,286.764771 
	C413.322754,287.870270 413.074829,289.065094 412.063477,289.924683 
	C410.957214,290.864960 409.693604,291.170837 408.389557,290.388153 
	C406.540527,289.278381 406.682678,287.757324 407.917847,285.827332 
z"/>
<path fill="#D0D0CE" opacity="1.000000" stroke="none" 
	d="
M265.578064,289.832733 
	C266.404083,289.598022 266.863220,289.645996 267.662109,289.893616 
	C267.999268,290.491455 267.996704,290.889618 267.998505,291.586365 
	C266.710144,291.866455 265.656433,291.470917 265.578064,289.832733 
z"/>
<path fill="#111111" opacity="1.000000" stroke="none" 
	d="
M142.877716,224.927811 
	C143.866562,222.446518 144.734543,220.339539 146.080368,217.072601 
	C148.033112,221.769745 149.589859,225.514328 151.357712,229.766708 
	C147.735306,229.766708 144.579865,229.766708 141.335083,229.766708 
	C141.179276,228.146362 142.196396,226.791199 142.877716,224.927811 
z"/>
<path fill="#131313" opacity="1.000000" stroke="none" 
	d="
M447.725647,217.879974 
	C449.561188,221.912506 451.155151,225.701263 452.736084,229.459015 
	C452.209961,229.779816 451.964966,230.056015 451.708130,230.067520 
	C442.107361,230.498230 442.101074,230.492401 445.678986,221.699295 
	C446.237244,220.327271 446.880249,218.989700 447.725647,217.879974 
z"/>
<path fill="#262625" opacity="1.000000" stroke="none" 
	d="
M330.207703,285.382385 
	C328.309509,286.399994 326.356201,287.977417 325.179779,285.252472 
	C324.806366,284.387451 324.174408,282.353241 326.191162,282.083923 
	C328.290619,281.803589 330.727386,281.622955 330.207703,285.382385 
z"/>
<path fill="#111111" opacity="1.000000" stroke="none" 
	d="
M176.261322,282.304932 
	C177.035675,282.755249 177.496414,282.993469 177.804688,283.359924 
	C179.261246,285.091400 179.367966,286.910339 177.932251,288.701691 
	C176.613022,290.347717 174.392822,290.718628 173.040268,289.852753 
	C170.812363,288.426514 172.159622,285.692627 172.167236,283.582062 
	C172.177521,280.732849 174.544144,282.452087 176.261322,282.304932 
z"/>
<path fill="#262625" opacity="1.000000" stroke="none" 
	d="
M292.599121,283.946167 
	C291.920013,286.899567 289.899933,287.075287 288.021240,286.210724 
	C286.726379,285.614868 286.827606,283.397980 287.584259,282.753998 
	C289.222626,281.359497 291.180664,281.523407 292.599121,283.946167 
z"/>
</svg>